<svg preserveAspectRatio="none" width="100%" height="100%" overflow="visible" style="display: block;" viewBox="0 0 16 15" fill="none" xmlns="http://www.w3.org/2000/svg">
<path id="Vector" d="M15.5 7.4996H5.48243M1.94649 7.4996H0.5M1.94649 7.4996C1.94649 7.03904 2.13271 6.59734 2.4642 6.27167C2.79568 5.946 3.24527 5.76304 3.71405 5.76304C4.18284 5.76304 4.63243 5.946 4.96391 6.27167C5.2954 6.59734 5.48162 7.03904 5.48162 7.4996C5.48162 7.96016 5.2954 8.40186 4.96391 8.72753C4.63243 9.0532 4.18284 9.23616 3.71405 9.23616C3.24527 9.23616 2.79568 9.0532 2.4642 8.72753C2.13271 8.40186 1.94649 7.96016 1.94649 7.4996ZM15.5 12.7626H10.8395M10.8395 12.7626C10.8395 13.2233 10.6528 13.6655 10.3212 13.9913C9.98967 14.317 9.53998 14.5 9.07108 14.5C8.60229 14.5 8.15271 14.3162 7.82122 13.9906C7.48974 13.6649 7.30351 13.2232 7.30351 12.7626M10.8395 12.7626C10.8395 12.302 10.6528 11.8606 10.3212 11.5348C9.98967 11.2091 9.53998 11.0261 9.07108 11.0261C8.60229 11.0261 8.15271 11.209 7.82122 11.5347C7.48974 11.8604 7.30351 12.3021 7.30351 12.7626M7.30351 12.7626H0.5M15.5 2.23656H12.9824M9.44649 2.23656H0.5M9.44649 2.23656C9.44649 1.77599 9.63271 1.33429 9.9642 1.00863C10.2957 0.682958 10.7453 0.5 11.2141 0.5C11.4462 0.5 11.676 0.544917 11.8905 0.632188C12.1049 0.719458 12.2998 0.847372 12.4639 1.00863C12.628 1.16988 12.7582 1.36132 12.8471 1.57201C12.9359 1.78269 12.9816 2.00851 12.9816 2.23656C12.9816 2.46461 12.9359 2.69042 12.8471 2.90111C12.7582 3.1118 12.628 3.30323 12.4639 3.46449C12.2998 3.62574 12.1049 3.75366 11.8905 3.84093C11.676 3.9282 11.4462 3.97311 11.2141 3.97311C10.7453 3.97311 10.2957 3.79016 9.9642 3.46449C9.63271 3.13882 9.44649 2.69712 9.44649 2.23656Z" stroke="var(--stroke-0, black)" stroke-miterlimit="10" stroke-linecap="round"/>
</svg>
