<svg preserveAspectRatio="none" width="100%" height="100%" overflow="visible" style="display: block;" viewBox="0 0 24 24" fill="none" xmlns="http://www.w3.org/2000/svg">
<g id="icon">
<path fill-rule="evenodd" clip-rule="evenodd" d="M10.0295 3.69231C8.80035 3.69231 7.66779 4.35871 7.07085 5.43321C5.81754 7.68916 7.44882 10.4615 10.0295 10.4615H13.9704C16.5511 10.4615 18.1824 7.68916 16.9291 5.43321C16.3321 4.35871 15.1996 3.69231 13.9704 3.69231H10.0295ZM8.68468 6.32978C8.95601 5.84137 9.47081 5.53846 10.0295 5.53846H13.9704C14.5291 5.53846 15.0439 5.84137 15.3152 6.32978C15.8849 7.35521 15.1434 8.61538 13.9704 8.61538H10.0295C8.85648 8.61538 8.11499 7.35521 8.68468 6.32978Z" fill="currentColor"/>
<path fill-rule="evenodd" clip-rule="evenodd" d="M9.24894 0C7.1954 0 5.29244 1.07744 4.2359 2.83833L0.833118 8.50964C0.287969 9.41822 0 10.4579 0 11.5175V18.1538C0 21.3826 2.61741 24 5.84615 24H18.1538C21.3826 24 24 21.3826 24 18.1538V11.5175C24 10.4579 23.712 9.41822 23.1669 8.50964L19.7641 2.83833C18.7076 1.07744 16.8046 0 14.7511 0H9.24894ZM5.81897 3.78817C6.54186 2.58335 7.84389 1.84615 9.24894 1.84615H14.7511C16.1561 1.84615 17.4581 2.58335 18.181 3.78817L21.5838 9.45948C21.9568 10.0811 22.1538 10.7925 22.1538 11.5175V18.1538C22.1538 20.363 20.363 22.1538 18.1538 22.1538H5.84615C3.63701 22.1538 1.84615 20.363 1.84615 18.1538V11.5175C1.84615 10.7925 2.04319 10.0811 2.41618 9.45948L5.81897 3.78817Z" fill="currentColor"/>
</g>
</svg>
