<svg preserveAspectRatio="none" width="100%" height="100%" overflow="visible" style="display: block;" viewBox="0 0 19 24" fill="none" xmlns="http://www.w3.org/2000/svg">
<g id="icon">
<path fill-rule="evenodd" clip-rule="evenodd" d="M15.4375 6C15.4375 9.31371 12.7792 12 9.5 12C6.22081 12 3.5625 9.31371 3.5625 6C3.5625 2.68629 6.22081 0 9.5 0C12.7792 0 15.4375 2.68629 15.4375 6ZM13.6562 6C13.6562 8.3196 11.7954 10.2 9.5 10.2C7.20457 10.2 5.34375 8.3196 5.34375 6C5.34375 3.6804 7.20457 1.8 9.5 1.8C11.7954 1.8 13.6562 3.6804 13.6562 6Z" fill="currentColor"/>
<path fill-rule="evenodd" clip-rule="evenodd" d="M19 18.6C19 21.5823 14.7467 24 9.5 24C4.2533 24 0 21.5823 0 18.6C0 15.6177 4.2533 13.2 9.5 13.2C14.7467 13.2 19 15.6177 19 18.6ZM17.2188 18.6C17.2188 19.1521 16.8063 20.0185 15.3442 20.8495C13.938 21.6489 11.8754 22.2 9.5 22.2C7.12463 22.2 5.062 21.6489 3.65576 20.8495C2.1937 20.0185 1.78125 19.1521 1.78125 18.6C1.78125 18.0479 2.1937 17.1815 3.65576 16.3505C5.062 15.5511 7.12463 15 9.5 15C11.8754 15 13.938 15.5511 15.3442 16.3505C16.8063 17.1815 17.2188 18.0479 17.2188 18.6Z" fill="currentColor"/>
</g>
</svg>
