<svg width="40" height="40" viewBox="0 0 40 40" fill="none" xmlns="http://www.w3.org/2000/svg">
<path fill-rule="evenodd" clip-rule="evenodd" d="M25.9375 14C25.9375 17.3137 23.2792 20 20 20C16.7208 20 14.0625 17.3137 14.0625 14C14.0625 10.6863 16.7208 8 20 8C23.2792 8 25.9375 10.6863 25.9375 14ZM24.1562 14C24.1562 16.3196 22.2954 18.2 20 18.2C17.7046 18.2 15.8438 16.3196 15.8438 14C15.8438 11.6804 17.7046 9.8 20 9.8C22.2954 9.8 24.1562 11.6804 24.1562 14Z" fill="black"/>
<path fill-rule="evenodd" clip-rule="evenodd" d="M29.5 26.6C29.5 29.5823 25.2467 32 20 32C14.7533 32 10.5 29.5823 10.5 26.6C10.5 23.6177 14.7533 21.2 20 21.2C25.2467 21.2 29.5 23.6177 29.5 26.6ZM27.7188 26.6C27.7188 27.1521 27.3063 28.0185 25.8442 28.8495C24.438 29.6489 22.3754 30.2 20 30.2C17.6246 30.2 15.562 29.6489 14.1558 28.8495C12.6937 28.0185 12.2812 27.1521 12.2812 26.6C12.2812 26.0479 12.6937 25.1815 14.1558 24.3505C15.562 23.5511 17.6246 23 20 23C22.3754 23 24.438 23.5511 25.8442 24.3505C27.3063 25.1815 27.7188 26.0479 27.7188 26.6Z" fill="black"/>
</svg>
