<svg width="44" height="44" viewBox="0 0 44 44" fill="none" xmlns="http://www.w3.org/2000/svg">
<path d="M9.16772 31.7784V12.2228C9.16772 10.6103 9.16772 9.8031 9.50706 9.32599C9.80323 8.90958 10.2597 8.63618 10.7665 8.57081C11.347 8.49595 12.0589 8.87564 13.4807 9.63394L31.814 19.4117L31.8207 19.4147C33.392 20.2527 34.178 20.6719 34.4358 21.2306C34.6607 21.718 34.6607 22.2806 34.4358 22.7681C34.1776 23.3276 33.3898 23.7485 31.814 24.5889L13.4807 34.3666C12.0579 35.1255 11.3472 35.5037 10.7665 35.4288C10.2597 35.3634 9.80323 35.0901 9.50706 34.6737C9.16772 34.1966 9.16772 33.3909 9.16772 31.7784Z" stroke="white" stroke-width="3" stroke-linecap="round" stroke-linejoin="round"/>
</svg>
