<svg preserveAspectRatio="none" width="100%" height="100%" overflow="visible" style="display: block;" viewBox="0 0 132 132" fill="none" xmlns="http://www.w3.org/2000/svg">
<g id="Yellow">
<path d="M7.54286 113.143C6.78857 109.372 6.6 101.829 6.6 101.829H23.5714V116.915H11.3143C11.3143 116.915 8.29714 116.915 7.54286 113.143Z" fill="#FFF1A9"/>
<path d="M16.9714 9.42857C19.8 3.7712 39.6 0 39.6 0H58.4571V128.229C58.4571 132 54.6857 132 54.6857 132H26.4C26.4 132 23.5714 132 23.5714 128.229L23.5714 101.829H6.6C6.6 101.829 0 66 0 57.5143C0 49.0286 14.1429 15.0859 16.9714 9.42857Z" fill="#F6DC58"/>
<path d="M115.029 9.42857C112.2 3.7712 92.4 0 92.4 0H73.5429V30.1714V128.229C73.5429 132 77.3143 132 77.3143 132H105.6C105.6 132 108.429 132 108.429 128.229V101.828H125.4C125.4 101.828 132 66 132 57.5143C132 49.0286 117.857 15.0859 115.029 9.42857Z" fill="#F6DC58"/>
<path d="M66.0031 124.457V0.00023019L39.6 0C39.6 0 39.6479 2.8288 40.5463 13.2002C41.4448 23.5717 58.4603 30.1717 58.4603 30.1717V124.457H66.0031Z" fill="#FFF1A9"/>
<path d="M66.0005 124.457V0.00023019H92.4037C92.4037 0.00023019 92.3558 2.8288 91.4573 13.2002C90.5589 23.5717 73.5429 30.1714 73.5429 30.1714L73.5434 124.457H66.0005Z" fill="var(--fill-0, #EACF48)"/>
<path d="M23.5714 113.528V116.915L23.5714 123.515L41.4857 104.657L44.8168 100.91C46.4487 99.074 45.1454 96.1717 42.689 96.1717C41.9197 96.1717 41.1833 96.483 40.6472 97.0346L34.8857 102.964L24.5143 113.528H23.5714Z" fill="#FFF1A9"/>
<path d="M108.429 113.528V116.914V123.515L90.5143 104.657L87.1832 100.91C85.5513 99.074 86.8546 96.1717 89.311 96.1717C90.0803 96.1717 90.8168 96.483 91.3528 97.0346L97.1143 102.964L107.486 113.528H108.429Z" fill="var(--fill-0, #EACF48)"/>
<path d="M124.457 113.143C124.457 109.371 125.4 101.828 125.4 101.828H108.429V116.914H121.629C121.629 116.914 124.457 116.914 124.457 113.143Z" fill="var(--fill-0, #EACF48)"/>
</g>
</svg>
