<svg width="65" height="19" viewBox="0 0 65 19" fill="none" xmlns="http://www.w3.org/2000/svg">
<path d="M0 18.6763V1.24509H5.9371C6.78935 1.24509 7.56376 1.42355 8.26031 1.78047C8.96506 2.1291 9.5223 2.63958 9.93204 3.31193C10.3418 3.98427 10.5466 4.78943 10.5466 5.72739C10.5466 6.23373 10.4606 6.72346 10.2885 7.19659C10.1246 7.66142 9.89516 8.064 9.60015 8.40432C9.31334 8.73635 8.98555 8.96046 8.61678 9.07667C9.13305 9.20948 9.57147 9.44605 9.93204 9.78637C10.2926 10.1184 10.5835 10.5085 10.8048 10.9567C11.0342 11.405 11.1981 11.874 11.2965 12.3637C11.3948 12.8534 11.444 13.3266 11.444 13.7831C11.444 14.746 11.2268 15.5968 10.7925 16.3355C10.3664 17.066 9.79273 17.6387 9.07159 18.0537C8.35045 18.4688 7.55556 18.6763 6.68692 18.6763H0ZM2.06508 16.8335H6.50254C7.06797 16.8335 7.58015 16.6883 8.03905 16.3978C8.50615 16.0989 8.87901 15.6922 9.15764 15.1776C9.43626 14.663 9.57557 14.0819 9.57557 13.4345C9.57557 12.8617 9.43626 12.3222 9.15764 11.8159C8.87901 11.3012 8.50615 10.8862 8.03905 10.5708C7.58015 10.2554 7.06797 10.0976 6.50254 10.0976H2.06508V16.8335ZM2.06508 8.29227H5.74042C6.49434 8.29227 7.13763 8.06815 7.67029 7.61992C8.21114 7.16339 8.48157 6.5284 8.48157 5.71494C8.48157 4.83508 8.21114 4.17934 7.67029 3.74771C7.13763 3.30778 6.49434 3.08781 5.74042 3.08781H2.06508V8.29227Z" fill="#E38E9F"/>
<path d="M13.6126 18.6763V0H15.6776V18.6763H13.6126Z" fill="#E38E9F"/>
<path d="M23.9188 19C22.7879 19 21.7553 18.7053 20.8211 18.116C19.8951 17.5266 19.1535 16.7381 18.5963 15.7503C18.0472 14.7543 17.7727 13.6544 17.7727 12.4509C17.7727 11.5378 17.9325 10.687 18.2521 9.89843C18.5717 9.10157 19.0101 8.40432 19.5673 7.80668C20.1328 7.20074 20.7884 6.72761 21.5341 6.38729C22.2798 6.04696 23.0747 5.8768 23.9188 5.8768C25.0496 5.8768 26.0781 6.17147 27.0041 6.76081C27.9383 7.35015 28.6799 8.14286 29.229 9.13892C29.7862 10.135 30.0648 11.239 30.0648 12.4509C30.0648 13.3556 29.905 14.2023 29.5854 14.9908C29.2658 15.7794 28.8233 16.4766 28.2579 17.0826C27.7006 17.6802 27.0491 18.1492 26.3034 18.4895C25.5659 18.8298 24.771 19 23.9188 19ZM23.9188 16.9083C24.6891 16.9083 25.3815 16.7049 25.9961 16.2982C26.6189 15.8831 27.1065 15.3394 27.4589 14.6671C27.8195 13.9865 27.9997 13.2477 27.9997 12.4509C27.9997 11.6374 27.8154 10.8903 27.4466 10.2097C27.086 9.52905 26.5984 8.98536 25.9838 8.57864C25.3692 8.17191 24.6809 7.96855 23.9188 7.96855C23.1484 7.96855 22.456 8.17606 21.8414 8.59109C21.2268 8.99782 20.7392 9.5415 20.3786 10.2221C20.018 10.9028 19.8378 11.6457 19.8378 12.4509C19.8378 13.2809 20.0221 14.0363 20.3909 14.7169C20.7597 15.3893 21.2555 15.9246 21.8783 16.3231C22.5011 16.7132 23.1812 16.9083 23.9188 16.9083Z" fill="#E38E9F"/>
<path d="M37.4353 19C36.3044 19 35.2719 18.7053 34.3377 18.116C33.4117 17.5266 32.67 16.7381 32.1128 15.7503C31.5638 14.7543 31.2892 13.6544 31.2892 12.4509C31.2892 11.5378 31.449 10.687 31.7686 9.89843C32.0882 9.10157 32.5266 8.40432 33.0839 7.80668C33.6493 7.20074 34.3049 6.72761 35.0506 6.38729C35.7963 6.04696 36.5912 5.8768 37.4353 5.8768C38.5662 5.8768 39.5946 6.17147 40.5206 6.76081C41.4548 7.35015 42.1964 8.14286 42.7455 9.13892C43.3027 10.135 43.5814 11.239 43.5814 12.4509C43.5814 13.3556 43.4216 14.2023 43.102 14.9908C42.7824 15.7794 42.3398 16.4766 41.7744 17.0826C41.2172 17.6802 40.5657 18.1492 39.82 18.4895C39.0824 18.8298 38.2875 19 37.4353 19ZM37.4353 16.9083C38.2056 16.9083 38.8981 16.7049 39.5127 16.2982C40.1355 15.8831 40.6231 15.3394 40.9754 14.6671C41.336 13.9865 41.5163 13.2477 41.5163 12.4509C41.5163 11.6374 41.3319 10.8903 40.9631 10.2097C40.6026 9.52905 40.115 8.98536 39.5004 8.57864C38.8858 8.17191 38.1974 7.96855 37.4353 7.96855C36.665 7.96855 35.9725 8.17606 35.3579 8.59109C34.7433 8.99782 34.2557 9.5415 33.8952 10.2221C33.5346 10.9028 33.3543 11.6457 33.3543 12.4509C33.3543 13.2809 33.5387 14.0363 33.9074 14.7169C34.2762 15.3893 34.772 15.9246 35.3948 16.3231C36.0176 16.7132 36.6978 16.9083 37.4353 16.9083Z" fill="#E38E9F"/>
<path d="M45.6153 18.6763V6.22543H47.6804V7.78178C48.1147 7.20074 48.6597 6.74006 49.3152 6.39974C49.979 6.05111 50.7002 5.8768 51.4787 5.8768C52.3883 5.8768 53.22 6.10092 53.974 6.54915C54.7279 6.99738 55.322 7.59087 55.7563 8.32962C56.1906 7.59087 56.7807 6.99738 57.5264 6.54915C58.2803 6.10092 59.108 5.8768 60.0094 5.8768C60.9354 5.8768 61.7754 6.10507 62.5293 6.5616C63.2832 7.00983 63.8814 7.61577 64.3239 8.37942C64.7746 9.14307 65 9.99388 65 10.9318V18.6763H62.9349V11.4299C62.9349 10.8156 62.7874 10.2471 62.4924 9.72411C62.1974 9.20118 61.8 8.782 61.3001 8.46658C60.8002 8.15116 60.247 7.99345 59.6406 7.99345C59.0342 7.99345 58.4811 8.14286 57.9812 8.44168C57.4813 8.7322 57.0839 9.13892 56.7889 9.66186C56.4939 10.1765 56.3463 10.7658 56.3463 11.4299V18.6763H54.2813V11.4299C54.2813 10.7658 54.1338 10.1765 53.8387 9.66186C53.5437 9.13892 53.1422 8.7322 52.6341 8.44168C52.1342 8.14286 51.5811 7.99345 50.9747 7.99345C50.3765 7.99345 49.8233 8.15116 49.3152 8.46658C48.8154 8.782 48.4179 9.20118 48.1229 9.72411C47.8279 10.2471 47.6804 10.8156 47.6804 11.4299V18.6763H45.6153Z" fill="#E38E9F"/>
</svg>
