<svg preserveAspectRatio="none" width="100%" height="100%" overflow="visible" style="display: block;" viewBox="0 0 18 18" fill="none" xmlns="http://www.w3.org/2000/svg">
<g id="Vector">
<path d="M1.26522 1.26522C0 2.53053 0 4.56718 0 8.64V9.36C0 13.4329 0 15.4695 1.26522 16.7347C2.53053 18 4.56718 18 8.64 18H9.36C13.4329 18 15.4695 18 16.7347 16.7347C18 15.4695 18 13.4329 18 9.36V8.64C18 4.56714 18 2.53049 16.7347 1.26522C15.4695 1.19209e-07 13.4329 0 9.36 0H8.64C4.56714 0 2.53049 1.19209e-07 1.26522 1.26522ZM3.0375 5.47505H5.09251C5.16001 8.91004 6.67499 10.365 7.875 10.665V5.47501H9.81V8.4375C10.995 8.31001 12.24 6.96001 12.66 5.47501H14.595C14.4367 6.24516 14.1212 6.97436 13.6682 7.61702C13.2153 8.25969 12.6346 8.80199 11.9625 9.21001C12.7129 9.58256 13.3757 10.1101 13.9071 10.7579C14.4385 11.4056 14.8263 12.1587 15.045 12.9675H12.915C12.7187 12.265 12.3194 11.6361 11.767 11.1597C11.2145 10.6834 10.5337 10.3808 9.81 10.29V12.9675H9.57749C5.47501 12.9675 3.13501 10.1551 3.0375 5.47505Z" fill="var(--fill-0, white)"/>
</g>
</svg>
