<svg width="24" height="24" viewBox="0 0 24 24" fill="none" xmlns="http://www.w3.org/2000/svg">
<path d="M17.0625 3H6.9375C4.76288 3 3 4.76288 3 6.9375V17.0625C3 19.2371 4.76288 21 6.9375 21H17.0625C19.2371 21 21 19.2371 21 17.0625V6.9375C21 4.76288 19.2371 3 17.0625 3Z" fill="black"/>
<path d="M16.7309 7.87965C16.6328 7.82942 16.5373 7.77435 16.4447 7.71466C16.1756 7.5384 15.9288 7.33072 15.7097 7.09608C15.1615 6.47482 14.9568 5.84454 14.8814 5.40328H14.8844C14.8214 5.03698 14.8475 4.8 14.8514 4.8H12.3547V14.3629C12.3547 14.4913 12.3547 14.6182 12.3492 14.7436C12.3492 14.7592 12.3477 14.7736 12.3468 14.7904C12.3468 14.7973 12.3468 14.8045 12.3453 14.8117V14.8171C12.319 15.1602 12.2079 15.4917 12.0219 15.7823C11.8359 16.0729 11.5807 16.3138 11.2786 16.4838C10.9638 16.6612 10.6078 16.7543 10.2456 16.7538C9.08231 16.7538 8.13953 15.8142 8.13953 14.6539C8.13953 13.4936 9.08231 12.554 10.2456 12.554C10.4658 12.5538 10.6846 12.5881 10.894 12.6557L10.897 10.1376C10.2614 10.0563 9.61574 10.1063 9.00066 10.2846C8.38557 10.4628 7.81446 10.7654 7.32333 11.1732C6.893 11.5435 6.53122 11.9854 6.25427 12.479C6.14886 12.659 5.75121 13.3823 5.70306 14.5561C5.67278 15.2224 5.87478 15.9126 5.97108 16.1979V16.2039C6.03166 16.3719 6.26638 16.9452 6.64889 17.4285C6.95732 17.8161 7.32172 18.1567 7.73038 18.4391V18.4331L7.73644 18.4391C8.94513 19.2527 10.2853 19.1993 10.2853 19.1993C10.5172 19.19 11.2944 19.1993 12.1769 18.785C13.1557 18.3257 13.713 17.6414 13.713 17.6414C14.069 17.2326 14.352 16.7667 14.5501 16.2636C14.776 15.6753 14.8514 14.9698 14.8514 14.6878V9.61446C14.8817 9.63246 15.2851 9.89674 15.2851 9.89674C15.2851 9.89674 15.8663 10.2657 16.773 10.506C17.4235 10.677 18.3 10.713 18.3 10.713V8.25792C17.9929 8.29092 17.3693 8.19493 16.7309 7.87965Z" fill="white"/>
</svg>
