<svg width="24" height="24" viewBox="0 0 24 24" fill="none" xmlns="http://www.w3.org/2000/svg">
<path d="M19.5512 5.12361C19.5512 5.12361 21.1237 4.51761 20.9922 5.9892C20.9489 6.5952 20.5558 8.71639 20.2498 11.0104L19.2015 17.8064C19.2015 17.8064 19.1141 18.8019 18.3276 18.9751C17.5416 19.1479 16.3621 18.3692 16.1435 18.196C15.9686 18.066 12.8673 16.118 11.7753 15.166C11.4693 14.906 11.1195 14.3868 11.819 13.7808L16.4058 9.45199C16.93 8.93199 17.4541 7.72 15.27 9.19199L9.154 13.304C9.154 13.304 8.45497 13.7372 7.14474 13.3476L4.30491 12.4816C4.30491 12.4816 3.25656 11.8324 5.04765 11.1832C9.41629 9.14879 14.7896 7.0712 19.5508 5.12321" fill="black"/>
</svg>
