<svg width="40" height="40" viewBox="0 0 40 40" fill="none" xmlns="http://www.w3.org/2000/svg">
<path fill-rule="evenodd" clip-rule="evenodd" d="M18.0295 11.6923C16.8004 11.6923 15.6678 12.3587 15.0708 13.4332C13.8175 15.6892 15.4488 18.4615 18.0295 18.4615H21.9704C24.5511 18.4615 26.1824 15.6892 24.9291 13.4332C24.3321 12.3587 23.1996 11.6923 21.9704 11.6923H18.0295ZM16.6847 14.3298C16.956 13.8414 17.4708 13.5385 18.0295 13.5385H21.9704C22.5291 13.5385 23.0439 13.8414 23.3152 14.3298C23.8849 15.3552 23.1434 16.6154 21.9704 16.6154H18.0295C16.8565 16.6154 16.115 15.3552 16.6847 14.3298Z" fill="black"/>
<path fill-rule="evenodd" clip-rule="evenodd" d="M17.2489 8C15.1954 8 13.2924 9.07744 12.2359 10.8383L8.83312 16.5096C8.28797 17.4182 8 18.4579 8 19.5175V26.1538C8 29.3826 10.6174 32 13.8462 32H26.1538C29.3826 32 32 29.3826 32 26.1538V19.5175C32 18.4579 31.712 17.4182 31.1669 16.5096L27.7641 10.8383C26.7076 9.07744 24.8046 8 22.7511 8H17.2489ZM13.819 11.7882C14.5419 10.5833 15.8439 9.84615 17.2489 9.84615H22.7511C24.1561 9.84615 25.4581 10.5833 26.181 11.7882L29.5838 17.4595C29.9568 18.0811 30.1538 18.7925 30.1538 19.5175V26.1538C30.1538 28.363 28.363 30.1538 26.1538 30.1538H13.8462C11.637 30.1538 9.84615 28.363 9.84615 26.1538V19.5175C9.84615 18.7925 10.0432 18.0811 10.4162 17.4595L13.819 11.7882Z" fill="black"/>
</svg>
