<svg width="88" height="26" viewBox="0 0 88 26" fill="none" xmlns="http://www.w3.org/2000/svg">
<path d="M1.24805 25.312C0.885382 25.312 0.586716 25.1947 0.352049 24.96C0.117382 24.7253 4.88758e-05 24.4267 4.88758e-05 24.064V1.56801C4.88758e-05 1.20534 0.117382 0.906677 0.352049 0.67201C0.586716 0.437344 0.885382 0.320011 1.24805 0.320011H7.23205C8.78938 0.320011 10.176 0.650677 11.392 1.31201C12.608 1.95201 13.5574 2.85868 14.24 4.03201C14.944 5.18401 15.296 6.51734 15.296 8.03201C15.296 9.48268 14.944 10.7733 14.24 11.904C13.5574 13.0347 12.608 13.92 11.392 14.56C10.176 15.2 8.78938 15.52 7.23205 15.52H2.49605V24.064C2.49605 24.4267 2.37872 24.7253 2.14405 24.96C1.90938 25.1947 1.61072 25.312 1.24805 25.312ZM14.6241 25.312C14.3467 25.312 14.1227 25.2587 13.952 25.152C13.8027 25.0453 13.664 24.8853 13.536 24.672L7.39205 14.88L9.88805 14.24L15.616 23.392C15.936 23.904 15.9894 24.352 15.7761 24.736C15.5841 25.12 15.2001 25.312 14.6241 25.312ZM2.49605 13.12H7.23205C8.32005 13.12 9.28005 12.9067 10.112 12.48C10.9654 12.032 11.6374 11.424 12.128 10.656C12.6187 9.88801 12.864 9.01334 12.864 8.03201C12.864 6.98668 12.6187 6.06934 12.128 5.28001C11.6374 4.46934 10.9654 3.84001 10.112 3.39201C9.28005 2.94401 8.32005 2.72001 7.23205 2.72001H2.49605V13.12ZM31.3333 25.632C29.4773 25.632 27.7706 25.312 26.2133 24.672C24.656 24.032 23.3013 23.136 22.1493 21.984C21.0186 20.832 20.1333 19.4773 19.4933 17.92C18.8746 16.3627 18.5653 14.656 18.5653 12.8C18.5653 10.9653 18.8746 9.26934 19.4933 7.71201C20.1333 6.15468 21.0186 4.80001 22.1493 3.64801C23.3013 2.49601 24.656 1.60001 26.2133 0.960011C27.7706 0.320011 29.4773 1.14441e-05 31.3333 1.14441e-05C33.168 1.14441e-05 34.864 0.320011 36.4213 0.960011C37.9786 1.60001 39.3333 2.49601 40.4853 3.64801C41.6373 4.80001 42.5226 6.15468 43.1413 7.71201C43.7813 9.26934 44.1013 10.9653 44.1013 12.8C44.1013 14.656 43.7813 16.3627 43.1413 17.92C42.5226 19.4773 41.6373 20.832 40.4853 21.984C39.3333 23.136 37.9786 24.032 36.4213 24.672C34.864 25.312 33.168 25.632 31.3333 25.632ZM31.3333 23.264C32.8053 23.264 34.1706 23.008 35.4293 22.496C36.688 21.9627 37.776 21.2267 38.6933 20.288C39.632 19.328 40.3573 18.2187 40.8693 16.96C41.3813 15.68 41.6373 14.2933 41.6373 12.8C41.6373 11.328 41.3813 9.96268 40.8693 8.70401C40.3573 7.42401 39.632 6.31468 38.6933 5.37601C37.776 4.41601 36.688 3.68001 35.4293 3.16801C34.1706 2.63468 32.8053 2.36801 31.3333 2.36801C29.84 2.36801 28.464 2.63468 27.2053 3.16801C25.9466 3.68001 24.848 4.41601 23.9093 5.37601C22.992 6.31468 22.2773 7.42401 21.7653 8.70401C21.2533 9.96268 20.9973 11.328 20.9973 12.8C20.9973 14.2933 21.2533 15.68 21.7653 16.96C22.2773 18.2187 22.992 19.328 23.9093 20.288C24.848 21.2267 25.9466 21.9627 27.2053 22.496C28.464 23.008 29.84 23.264 31.3333 23.264ZM56.93 25.632C55.5647 25.632 54.2954 25.44 53.122 25.056C51.97 24.6507 50.9674 24.0853 50.114 23.36C49.2607 22.6347 48.61 21.792 48.162 20.832C47.9914 20.4907 47.9807 20.1813 48.13 19.904C48.3007 19.6053 48.578 19.4027 48.962 19.296C49.2607 19.2107 49.5487 19.2427 49.826 19.392C50.1247 19.5413 50.3487 19.7653 50.498 20.064C50.818 20.6827 51.2874 21.2373 51.906 21.728C52.5247 22.2187 53.2607 22.6027 54.114 22.88C54.9674 23.136 55.906 23.264 56.93 23.264C58.0607 23.264 59.0634 23.0827 59.938 22.72C60.8127 22.336 61.4954 21.792 61.986 21.088C62.498 20.3627 62.754 19.488 62.754 18.464C62.754 17.1627 62.274 16.0427 61.314 15.104C60.354 14.1653 58.85 13.568 56.802 13.312C54.306 13.0133 52.354 12.2453 50.946 11.008C49.538 9.74934 48.834 8.21334 48.834 6.40001C48.834 5.09868 49.1754 3.96801 49.858 3.00801C50.562 2.04801 51.522 1.31201 52.738 0.800011C53.954 0.266678 55.3514 1.14441e-05 56.93 1.14441e-05C58.1034 1.14441e-05 59.17 0.192011 60.13 0.57601C61.09 0.938677 61.922 1.42934 62.626 2.04801C63.3514 2.64534 63.938 3.30668 64.386 4.03201C64.5994 4.37334 64.6634 4.70401 64.5781 5.02401C64.5141 5.34401 64.3327 5.58934 64.034 5.76001C63.7141 5.90934 63.3834 5.93068 63.042 5.82401C62.722 5.71734 62.4767 5.51468 62.306 5.21601C61.986 4.72534 61.5807 4.26668 61.09 3.84001C60.6207 3.39201 60.0447 3.04001 59.362 2.78401C58.6794 2.52801 57.858 2.38934 56.898 2.36801C55.2127 2.36801 53.858 2.73068 52.834 3.45601C51.81 4.16001 51.298 5.19468 51.298 6.56001C51.298 7.28534 51.49 7.95734 51.874 8.57601C52.258 9.17334 52.8874 9.69601 53.762 10.144C54.658 10.5707 55.8527 10.8907 57.346 11.104C60.0127 11.488 61.986 12.3093 63.2661 13.568C64.5674 14.8053 65.2181 16.4267 65.2181 18.432C65.2181 19.584 65.0047 20.608 64.5781 21.504C64.1727 22.4 63.586 23.1573 62.8181 23.776C62.0714 24.3733 61.186 24.832 60.162 25.152C59.1594 25.472 58.082 25.632 56.93 25.632ZM71.6855 25.312C71.3229 25.312 71.0242 25.1947 70.7895 24.96C70.5549 24.7253 70.4375 24.4267 70.4375 24.064V1.56801C70.4375 1.20534 70.5549 0.906677 70.7895 0.67201C71.0242 0.437344 71.3229 0.320011 71.6855 0.320011H86.6936C87.0349 0.320011 87.3229 0.437344 87.5576 0.67201C87.8135 0.885344 87.9415 1.17334 87.9415 1.53601C87.9415 1.85601 87.8135 2.13334 87.5576 2.36801C87.3229 2.60268 87.0349 2.72001 86.6936 2.72001H72.9335V11.552H82.9495C83.3122 11.552 83.6109 11.6693 83.8456 11.904C84.0802 12.1387 84.1975 12.4267 84.1975 12.768C84.1975 13.1093 84.0802 13.3973 83.8456 13.632C83.6109 13.8667 83.3122 13.984 82.9495 13.984H72.9335V22.912H86.6936C87.0349 22.912 87.3229 23.0293 87.5576 23.264C87.8135 23.4987 87.9415 23.776 87.9415 24.096C87.9415 24.4587 87.8135 24.7573 87.5576 24.992C87.3229 25.2053 87.0349 25.312 86.6936 25.312H71.6855Z" fill="black"/>
</svg>
