<svg preserveAspectRatio="none" width="100%" height="100%" overflow="visible" style="display: block;" viewBox="0 0 80 80" fill="none" xmlns="http://www.w3.org/2000/svg">
<g id="Yellow">
<path d="M4.57143 68.5716C4.11429 66.2859 4 61.7144 4 61.7144H14.2857V70.8573H6.85714C6.85714 70.8573 5.02857 70.8573 4.57143 68.5716Z" fill="#FFF1A9"/>
<path d="M10.2857 5.71429C12 2.28557 24 0 24 0H35.4286V77.7143C35.4286 79.9999 33.1429 80 33.1429 80H16C16 80 14.2857 79.9999 14.2857 77.7143L14.2857 61.7144H4C4 61.7144 0 40 0 34.8571C0 29.7143 8.57143 9.143 10.2857 5.71429Z" fill="#F6DC58"/>
<path d="M69.7143 5.71429C68 2.28557 56 0 56 0H44.5714V18.2857V77.7143C44.5714 79.9999 46.8571 80 46.8571 80H64C64 80 65.7143 79.9999 65.7143 77.7143V61.7142H76C76 61.7142 80 40 80 34.8571C80 29.7143 71.4286 9.143 69.7143 5.71429Z" fill="#F6DC58"/>
<path d="M40.0019 75.4287V0.000139509L24 0C24 0 24.029 1.71443 24.5735 8.00014C25.1181 14.2859 35.4305 18.2859 35.4305 18.2859V75.4287H40.0019Z" fill="#FFF1A9"/>
<path d="M40.0003 75.4287V0.000139509H56.0022C56.0022 0.000139509 55.9732 1.71443 55.4287 8.00014C54.8842 14.2859 44.5714 18.2857 44.5714 18.2857L44.5718 75.4287H40.0003Z" fill="var(--fill-0, #EACF48)"/>
<path d="M14.2857 68.805V70.8573L14.2857 74.8573L25.1429 63.4287L27.1617 61.1575C28.1508 60.0448 27.3609 58.2859 25.8721 58.2859C25.4059 58.2859 24.9595 58.4745 24.6347 58.8089L21.1429 62.4026L14.8571 68.805H14.2857Z" fill="#FFF1A9"/>
<path d="M65.7143 68.805V70.8571V74.8573L54.8571 63.4287L52.8383 61.1575C51.8492 60.0448 52.6391 58.2859 54.1279 58.2859C54.5941 58.2859 55.0405 58.4745 55.3653 58.8089L58.8571 62.4026L65.1429 68.805H65.7143Z" fill="var(--fill-0, #EACF48)"/>
<path d="M75.4286 68.5713C75.4286 66.2857 76 61.7142 76 61.7142H65.7143V70.8571H73.7143C73.7143 70.8571 75.4286 70.8569 75.4286 68.5713Z" fill="var(--fill-0, #EACF48)"/>
</g>
</svg>
