<svg xmlns="http://www.w3.org/2000/svg" viewBox="0 0 30 24" fill="none" aria-hidden="true">
	<title>Merfy</title>
	<path
		fill="#71C0FF"
		d="M3.86059 0.169015H0.674157C0.301831 0.169015 0 0.476018 0 0.854728V23.1453C0 23.524 0.301831 23.831 0.674158 23.831H4.7191C5.09143 23.831 5.39326 23.524 5.39326 23.1453V3.00705C5.39326 2.91867 5.37647 2.83114 5.3438 2.74925L4.48529 0.596934C4.38211 0.338251 4.13505 0.169015 3.86059 0.169015Z"
	/>
	<path
		fill="#71C0FF"
		d="M6.23596 1.35211V3.57497C6.23596 4.096 6.79171 4.43557 7.27768 4.27086C9.39519 3.55316 12.3034 3.85294 12.3034 9.12676V24H17.0225C17.3948 24 17.6966 23.693 17.6966 23.3143V7.09859C17.6966 4.73239 16.2135 0 10.2809 0C8.93258 0 6.23596 0.270423 6.23596 1.35211Z"
	/>
	<path
		fill="#71C0FF"
		d="M18.5393 1.35211V3.57497C18.5393 4.096 19.0951 4.43557 19.5811 4.27086C21.6986 3.55316 24.6067 3.85294 24.6067 9.12676V24H29.3258C29.6982 24 30 23.693 30 23.3143V7.09859C30 4.73239 28.5169 0 22.5843 0C21.236 0 18.5393 0.270423 18.5393 1.35211Z"
	/>
</svg>
