<svg width="32" height="32" viewBox="0 0 32 32" fill="none" xmlns="http://www.w3.org/2000/svg">
  <g transform="translate(5.333 5.333)">
    <path fill-rule="evenodd" clip-rule="evenodd" d="M8.91514 3.28205C7.82254 3.28205 6.81581 3.87441 6.2852 4.82952C5.17115 6.83481 6.62117 9.29915 8.91514 9.29915H12.4181C14.7121 9.29915 16.1621 6.83481 15.0481 4.82952C14.5174 3.87441 13.5107 3.28205 12.4181 3.28205H8.91514ZM7.71971 5.62647C7.9609 5.19233 8.4185 4.92308 8.91514 4.92308H12.4181C12.9148 4.92308 13.3724 5.19233 13.6135 5.62647C14.1199 6.53797 13.4608 7.65812 12.4181 7.65812H8.91514C7.87243 7.65812 7.21333 6.53797 7.71971 5.62647Z" fill="var(--fill-0, #000000)"/>
    <path fill-rule="evenodd" clip-rule="evenodd" d="M8.22128 0C6.39591 0 4.70439 0.957724 3.76525 2.52296L0.74055 7.56412C0.255972 8.37175 0 9.29589 0 10.2377V16.1368C0 19.0067 2.32659 21.3333 5.19658 21.3333H16.1368C19.0067 21.3333 21.3333 19.0067 21.3333 16.1368V10.2377C21.3333 9.29589 21.0774 8.37175 20.5928 7.56412L17.5681 2.52296C16.6289 0.957724 14.9374 0 13.1121 0H8.22128ZM5.17241 3.36726C5.81499 2.29631 6.97234 1.64103 8.22128 1.64103H13.1121C14.361 1.64103 15.5183 2.29631 16.1609 3.36726L19.1856 8.40842C19.5172 8.96101 19.6923 9.59332 19.6923 10.2377V16.1368C19.6923 18.1004 18.1004 19.6923 16.1368 19.6923H5.19658C3.2329 19.6923 1.64103 18.1004 1.64103 16.1368V10.2377C1.64103 9.59332 1.81616 8.96101 2.14772 8.40842L5.17241 3.36726Z" fill="var(--fill-0, #000000)"/>
  </g>
</svg>
