<svg width="31" height="24" viewBox="0 0 31 24" fill="none" xmlns="http://www.w3.org/2000/svg">
<rect width="31" height="24" rx="4" fill="#FAFAFA"/>
<path d="M12.3906 6.49718H18.6094V17.5027H12.3906V6.49718Z" fill="#FF5F00"/>
<path d="M12.7855 12C12.7855 9.76392 13.8515 7.78055 15.4901 6.49718C14.2859 5.56387 12.7658 5 11.1074 5C7.1785 5 4 8.13051 4 12C4 15.8695 7.1785 19 11.1073 19C12.7657 19 14.2858 18.4361 15.4901 17.5027C13.8515 16.2388 12.7855 14.2361 12.7855 12Z" fill="#EB001B"/>
<path d="M27 12C27 15.8694 23.8215 19 19.8927 19C18.2343 19 16.7142 18.4361 15.5099 17.5027C17.1683 16.2195 18.2146 14.2361 18.2146 12C18.2146 9.76392 17.1485 7.78055 15.5099 6.49718C16.7141 5.56387 18.2343 5 19.8927 5C23.8215 5 27 8.15 27 12Z" fill="#F79E1B"/>
</svg>
