<svg width="24" height="24" viewBox="0 0 24 24" fill="none" xmlns="http://www.w3.org/2000/svg">
  <g transform="translate(4.733 3.4)">
    <path d="M9.76667 3.26667L7.26667 0.6L4.76667 3.26667M7.26667 0.6V9.48889M3.10019 6.82222C2.32362 6.82222 1.93534 6.82222 1.62905 6.95755C1.22067 7.13798 0.896024 7.48427 0.726868 7.91988C0.6 8.24658 0.6 8.66055 0.6 9.48889V13.7556C0.6 14.7512 0.6 15.2487 0.781656 15.629C0.941445 15.9635 1.19623 16.236 1.50983 16.4064C1.866 16.6 2.3325 16.6 3.26409 16.6H11.2696C12.2012 16.6 12.6671 16.6 13.0232 16.4064C13.3368 16.236 13.5921 15.9635 13.7519 15.629C13.9333 15.2491 13.9333 14.752 13.9333 13.7583V9.48889C13.9333 8.66055 13.9332 8.24658 13.8064 7.91988C13.6372 7.48427 13.3129 7.13798 12.9045 6.95755C12.5982 6.82222 12.2099 6.82222 11.4333 6.82222" stroke="var(--stroke-0, #000000)" stroke-width="1.2" stroke-linecap="round" stroke-linejoin="round"/>
  </g>
</svg>
