<svg width="24" height="24" viewBox="0 0 24 24" fill="none" xmlns="http://www.w3.org/2000/svg">
<path d="M4.26522 4.26522C3 5.53053 3 7.56718 3 11.64V12.36C3 16.4329 3 18.4695 4.26522 19.7347C5.53053 21 7.56718 21 11.64 21H12.36C16.4329 21 18.4695 21 19.7347 19.7347C21 18.4695 21 16.4329 21 12.36V11.64C21 7.56714 21 5.53049 19.7347 4.26522C18.4695 3 16.4329 3 12.36 3H11.64C7.56714 3 5.53049 3 4.26522 4.26522ZM6.0375 8.47505H8.09251C8.16001 11.91 9.67499 13.365 10.875 13.665V8.47501H12.81V11.4375C13.995 11.31 15.24 9.96001 15.66 8.47501H17.595C17.4367 9.24516 17.1212 9.97436 16.6682 10.617C16.2153 11.2597 15.6346 11.802 14.9625 12.21C15.7129 12.5826 16.3757 13.1101 16.9071 13.7579C17.4385 14.4056 17.8263 15.1587 18.045 15.9675H15.915C15.7187 15.265 15.3194 14.6361 14.767 14.1597C14.2145 13.6834 13.5337 13.3808 12.81 13.29V15.9675H12.5775C8.47501 15.9675 6.13501 13.1551 6.0375 8.47505Z" fill="black"/>
<path d="M6.0375 8.47505H8.09251C8.16001 11.91 9.67499 13.365 10.875 13.665V8.47501H12.81V11.4375C13.995 11.31 15.24 9.96001 15.66 8.47501H17.595C17.4367 9.24516 17.1212 9.97436 16.6682 10.617C16.2153 11.2597 15.6346 11.802 14.9625 12.21C15.7129 12.5826 16.3757 13.1101 16.9071 13.7579C17.4385 14.4056 17.8263 15.1587 18.045 15.9675H15.915C15.7187 15.265 15.3194 14.6361 14.767 14.1597C14.2145 13.6834 13.5337 13.3808 12.81 13.29V15.9675H12.5775C8.47501 15.9675 6.13501 13.1551 6.0375 8.47505Z" fill="white"/>
</svg>
