<svg preserveAspectRatio="none" width="100%" height="100%" overflow="visible" style="display: block;" viewBox="0 0 13 16" fill="none" xmlns="http://www.w3.org/2000/svg">
<g id="icon">
<path fill-rule="evenodd" clip-rule="evenodd" d="M10.5625 4C10.5625 6.20914 8.74366 8 6.5 8C4.25634 8 2.4375 6.20914 2.4375 4C2.4375 1.79086 4.25634 0 6.5 0C8.74366 0 10.5625 1.79086 10.5625 4ZM9.34375 4C9.34375 5.5464 8.07056 6.8 6.5 6.8C4.92944 6.8 3.65625 5.5464 3.65625 4C3.65625 2.4536 4.92944 1.2 6.5 1.2C8.07056 1.2 9.34375 2.4536 9.34375 4Z" fill="black"/>
<path fill-rule="evenodd" clip-rule="evenodd" d="M13 12.4C13 14.3882 10.0899 16 6.5 16C2.91015 16 0 14.3882 0 12.4C0 10.4118 2.91015 8.8 6.5 8.8C10.0899 8.8 13 10.4118 13 12.4ZM11.7812 12.4C11.7812 12.768 11.499 13.3456 10.4987 13.8997C9.53653 14.4326 8.12526 14.8 6.5 14.8C4.87474 14.8 3.46347 14.4326 2.50131 13.8997C1.50095 13.3456 1.21875 12.768 1.21875 12.4C1.21875 12.032 1.50095 11.4544 2.50131 10.9003C3.46347 10.3674 4.87474 10 6.5 10C8.12526 10 9.53653 10.3674 10.4987 10.9003C11.499 11.4544 11.7812 12.032 11.7812 12.4Z" fill="black"/>
</g>
</svg>
