<svg preserveAspectRatio="none" width="100%" height="100%" overflow="visible" style="display: block;" viewBox="0 0 81 24" fill="none" xmlns="http://www.w3.org/2000/svg">
<g id="flux">
<path d="M43.9249 0V2.15061H36.4706V10.8358H41.661V11.0564C41.661 11.6446 41.4862 12.1133 41.1365 12.4625C40.7868 12.8118 40.3174 12.9864 39.7284 12.9864H36.4706V24H34.2896V0H43.9249Z" fill="var(--fill-0, black)"/>
<path d="M48.3768 0V21.644H53.3463C53.8432 21.644 54.239 21.8002 54.5335 22.1127C54.8463 22.4068 55.0028 22.802 55.0028 23.2983V24H46.1957V0H48.3768Z" fill="var(--fill-0, black)"/>
<path d="M58.9241 0V19.8518C58.9241 20.44 59.0989 20.9087 59.4486 21.258C59.7983 21.6072 60.2677 21.7818 60.8567 21.7818H63.2034C63.7923 21.7818 64.2617 21.6072 64.6114 21.258C64.9611 20.9087 65.136 20.44 65.136 19.8518V0H67.317V19.8242C67.317 21.0742 66.9397 22.0759 66.1851 22.8296C65.4304 23.5832 64.4273 23.96 63.1758 23.96H60.8843C59.6327 23.96 58.6296 23.5832 57.8749 22.8296C57.1203 22.0759 56.743 21.0742 56.743 19.8242V0H58.9241Z" fill="var(--fill-0, black)"/>
<path d="M73.5457 11.9111L69.4321 0H71.8064L75.2298 10.2292L78.6257 0H81L76.8863 11.9111L80.9247 23.96H78.5503L75.2298 13.593L71.7311 23.96H69.3567L73.5457 11.9111Z" fill="var(--fill-0, black)"/>
<path d="M3.8147e-06 24L0 13.5375H2.49353L2.49353 24H3.8147e-06Z" fill="var(--fill-0, black)"/>
<path d="M3.97538 24V7.54747H6.47007L6.47008 24H3.97538Z" fill="var(--fill-0, black)"/>
<path d="M7.95074 24L7.95073 0.0399724H10.4347L10.4347 24H7.95074Z" fill="var(--fill-0, black)"/>
<path d="M11.9261 24L11.9261 4.0533H14.4112L14.4112 24H11.9261Z" fill="var(--fill-0, black)"/>
<path d="M15.9023 24L15.9023 9.84911H18.3861L18.3861 24H15.9023Z" fill="var(--fill-0, black)"/>
</g>
</svg>
