<svg preserveAspectRatio="none" width="100%" height="100%" overflow="visible" style="display: block;" viewBox="0 0 16 16" fill="none" xmlns="http://www.w3.org/2000/svg">
<g id="icon">
<path fill-rule="evenodd" clip-rule="evenodd" d="M6.68635 2.46154C5.8669 2.46154 5.11186 2.90581 4.7139 3.62214C3.87836 5.12611 4.96588 6.97436 6.68636 6.97436H9.31359C11.0341 6.97436 12.1216 5.12611 11.286 3.62214C10.8881 2.90581 10.133 2.46154 9.31359 2.46154H6.68635ZM5.78978 4.21985C5.97068 3.89425 6.31388 3.69231 6.68635 3.69231H9.31359C9.68607 3.69231 10.0293 3.89425 10.2102 4.21985C10.59 4.90348 10.0956 5.74359 9.31359 5.74359H6.68636C5.90432 5.74359 5.40999 4.90348 5.78978 4.21985Z" fill="black"/>
<path fill-rule="evenodd" clip-rule="evenodd" d="M6.16596 0C4.79693 0 3.52829 0.718293 2.82393 1.89222L0.555412 5.67309C0.191979 6.27881 0 6.97192 0 7.67831V12.1026C0 14.2551 1.74494 16 3.89744 16H12.1026C14.2551 16 16 14.2551 16 12.1026V7.67831C16 6.97192 15.808 6.27881 15.4446 5.67309L13.1761 1.89222C12.4717 0.718293 11.2031 0 9.83404 0H6.16596ZM3.87931 2.52545C4.36124 1.72223 5.22926 1.23077 6.16596 1.23077H9.83404C10.7707 1.23077 11.6388 1.72223 12.1207 2.52545L14.3892 6.30632C14.6379 6.72076 14.7692 7.19499 14.7692 7.67831V12.1026C14.7692 13.5753 13.5753 14.7692 12.1026 14.7692H3.89744C2.42468 14.7692 1.23077 13.5753 1.23077 12.1026V7.67831C1.23077 7.19499 1.36212 6.72076 1.61079 6.30632L3.87931 2.52545Z" fill="black"/>
</g>
</svg>
