<svg width="24" height="24" viewBox="0 0 24 24" fill="none" xmlns="http://www.w3.org/2000/svg" aria-hidden="true">
  <path d="M3.27 3.27 2 4.54l2.89 2.89C3.53 8.53 2.28 10.09 1 12c1.73 3.89 6 7 11 7 1.55 0 3.03-.3 4.38-.84l2.52 2.52 1.27-1.27L3.27 3.27zM12 17.5c-5 0-9.27-3.11-11-7 .64-1.43 1.58-2.7 2.73-3.74l2.05 2.05A4.48 4.48 0 0 0 12 16.5c.62 0 1.21-.13 1.74-.35l2.05 2.05c-.97.52-2.05.8-3.21.8z" fill="#777777"/>
  <path d="m14.12 10.88 1.27-1.27A4.48 4.48 0 0 0 12 7.5c-.62 0-1.21.13-1.74.35L9.88 6.47A6.97 6.97 0 0 1 12 5c5 0 9.27 3.11 11 7a11.8 11.8 0 0 1-2.16 3.47l-1.49-1.49A4.48 4.48 0 0 0 14.12 10.88z" fill="#777777"/>
</svg>
