<svg width="48" height="24" viewBox="0 0 48 24" fill="none" xmlns="http://www.w3.org/2000/svg">
<rect width="48" height="24" rx="4" fill="#FAFAFA"/>
<path d="M4 7.00163H7.7526C8.09374 7.00163 9.11718 6.89748 9.57204 8.35557C9.91318 9.29292 10.368 10.751 11.0503 12.9382H11.2778C11.9601 10.6469 12.5286 9.08462 12.7561 8.35557C13.2109 6.89748 14.3481 7.00163 14.8029 7.00163H18.3281V17H14.6892V11.0635H14.4618L12.5286 17H9.79947L7.86631 11.0635H7.52517V17H4M19.8064 7.00163H23.4453V12.9382H23.7864L26.1744 8.04312C26.6293 7.10578 27.6527 7.00163 27.6527 7.00163H31.0642V17H27.4253V11.0635H27.1979L24.8099 15.9585C24.355 16.8959 23.2178 17 23.2178 17H19.8064M35.9539 13.9797V17H32.5425V11.7925H43.6866C43.2317 13.0423 41.6397 13.9797 39.8202 13.9797" fill="#017F36"/>
<path d="M43.9143 11.1677C44.3691 9.293 43.0045 7.00171 40.048 7.00171H32.3153C32.5428 9.18885 34.5896 11.1677 36.7502 11.1677" fill="url(#paint0_linear_1_19061)"/>
<defs>
<linearGradient id="paint0_linear_1_19061" x1="42.5497" y1="5.64776" x2="33.4525" y2="5.64776" gradientUnits="userSpaceOnUse">
<stop stop-color="#1F5CD7"/>
<stop offset="1" stop-color="#02AEFF"/>
</linearGradient>
</defs>
</svg>
