<svg preserveAspectRatio="none" width="100%" height="100%" overflow="visible" style="display: block;" viewBox="0 0 17 14" fill="none" xmlns="http://www.w3.org/2000/svg">
<path id="Vector" d="M15.5512 0.123606C15.5512 0.123606 17.1237 -0.482391 16.9922 0.989202C16.9489 1.5952 16.5558 3.71639 16.2498 6.01038L15.2015 12.8064C15.2015 12.8064 15.1141 13.8019 14.3276 13.9751C13.5416 14.1479 12.3621 13.3692 12.1435 13.196C11.9686 13.066 8.86732 11.118 7.77526 10.166C7.46926 9.90597 7.11954 9.38677 7.81898 8.78077L12.4058 4.45199C12.93 3.93199 13.4541 2.72 11.27 4.19199L5.154 8.30397C5.154 8.30397 4.45497 8.73717 3.14474 8.34757L0.304908 7.48158C0.304908 7.48158 -0.743436 6.83238 1.04765 6.18318C5.41629 4.14879 10.7896 2.0712 15.5508 0.123206" fill="var(--fill-0, black)"/>
</svg>
