<svg preserveAspectRatio="xMidYMid meet" width="100%" height="100%" viewBox="0 0 18 18" fill="none" xmlns="http://www.w3.org/2000/svg">
  <path
    d="M14.0625 0H3.9375C1.76288 0 0 1.76288 0 3.9375V14.0625C0 16.2371 1.76288 18 3.9375 18H14.0625C16.2371 18 18 16.2371 18 14.0625V3.9375C18 1.76288 16.2371 0 14.0625 0Z"
    fill="var(--fill-0, #FFFFFF)"
  />
  <path
    d="M13.7309 4.87965C13.6328 4.82942 13.5373 4.77435 13.4447 4.71466C13.1756 4.5384 12.9288 4.33072 12.7097 4.09608C12.1615 3.47482 11.9568 2.84454 11.8814 2.40328H11.8844C11.8214 2.03698 11.8475 1.8 11.8514 1.8H9.35466V11.3629C9.35466 11.4913 9.35466 11.6182 9.3492 11.7436C9.3492 11.7592 9.34769 11.7736 9.34679 11.7904C9.34679 11.7973 9.34679 11.8045 9.34527 11.8117V11.8171C9.31896 12.1602 9.20791 12.4917 9.02192 12.7823C8.83592 13.0729 8.58066 13.3138 8.27862 13.4838C7.96381 13.6612 7.60777 13.7543 7.24558 13.7538C6.08231 13.7538 5.13953 12.8142 5.13953 11.6539C5.13953 10.4936 6.08231 9.55401 7.24558 9.55401C7.46579 9.55381 7.68463 9.58814 7.894 9.6557L7.89703 7.13763C7.26145 7.05632 6.61574 7.10634 6.00066 7.28457C5.38557 7.46281 4.81446 7.76538 4.32333 8.17318C3.893 8.54353 3.53122 8.98544 3.25427 9.47901C3.14886 9.65901 2.75121 10.3823 2.70306 11.5561C2.67278 12.2224 2.87478 12.9126 2.97108 13.1979V13.2039C3.03166 13.3719 3.26638 13.9452 3.64889 14.4285C3.95732 14.8161 4.32172 15.1567 4.73038 15.4391V15.4331L4.73644 15.4391C5.94513 16.2527 7.28526 16.1993 7.28526 16.1993C7.51725 16.19 8.29436 16.1993 9.17688 15.785C10.1557 15.3257 10.713 14.6414 10.713 14.6414C11.069 14.2326 11.352 13.7667 11.5501 13.2636C11.776 12.6753 11.8514 11.9698 11.8514 11.6878V6.61446C11.8817 6.63246 12.2851 6.89674 12.2851 6.89674C12.2851 6.89674 12.8663 7.26572 13.773 7.50602C14.4235 7.67701 15.3 7.713 15.3 7.713V5.25792C14.9929 5.29092 14.3693 5.19493 13.7309 4.87965Z"
    fill="var(--fill-1, #000000)"
  />
</svg>
