<svg width="89" height="28" viewBox="0 0 89 28" fill="none" xmlns="http://www.w3.org/2000/svg">
<path d="M8.20257 28C8.10404 28 8.01783 27.9506 7.94393 27.8519C7.89466 27.7778 7.90698 27.679 7.98088 27.5556C8.1533 27.284 8.38731 26.8765 8.6829 26.3333C9.00312 25.7901 9.38492 25.1728 9.8283 24.4815C9.40955 24.679 8.94154 24.8642 8.42426 25.037C7.90698 25.2346 7.4636 25.3704 7.09411 25.4444C6.72463 25.5432 6.5522 25.5432 6.57683 25.4444C6.7 25.0247 6.92169 24.2222 7.24191 23.037C7.56213 21.8272 7.9193 20.3827 8.31341 18.7037C8.70753 17.0247 9.0647 15.2469 9.38492 13.3704C9.70514 11.4691 9.91452 9.62963 10.013 7.85185C10.0377 7.65432 10.05 7.46914 10.05 7.2963C10.05 7.09877 10.05 6.91358 10.05 6.74074C10.05 4.91358 9.77904 3.49383 9.23713 2.48148C8.69522 1.46914 8.00551 0.962964 7.16801 0.962964C6.40441 0.962964 5.57923 1.40741 4.69246 2.2963C3.83033 3.1605 2.98051 4.53087 2.14301 6.40741C1.65037 7.54321 1.26857 8.74074 0.99761 10C0.751286 11.2593 0.677389 12.4815 0.775919 13.6667V13.7407C0.775919 13.9136 0.73897 14.037 0.665073 14.1111C0.591176 14.1605 0.517279 14.0988 0.443382 13.9259C0.295588 13.6049 0.184743 13.1975 0.110845 12.7037C0.0369485 12.2099 0 11.679 0 11.1111C0 10.0988 0.110846 9.03704 0.332537 7.92593C0.554228 6.81482 0.862132 5.8642 1.25625 5.07408C1.77353 4.11111 2.42629 3.24692 3.21452 2.48148C4.00276 1.71605 4.85257 1.11111 5.76397 0.666667C6.67536 0.222222 7.57444 0 8.46121 0C9.42187 0 10.3086 0.320988 11.1215 0.962964C11.959 1.60494 12.5748 2.69136 12.9689 4.22222C13.166 4.93827 13.3138 5.7037 13.4123 6.51852C13.5108 7.30864 13.5601 8.17284 13.5601 9.11111C13.5601 10.7901 13.3877 12.6914 13.0428 14.8148C12.698 16.9136 12.1684 19.284 11.454 21.9259C12.3408 20.5926 13.3261 19.1481 14.4099 17.5926C15.4937 16.037 16.6515 14.4691 17.8831 12.8889C19.1147 11.284 20.3709 9.75309 21.6518 8.2963C22.9327 6.83951 24.2136 5.51852 25.4945 4.33333C26.7754 3.14815 28.007 2.20988 29.1893 1.51852C29.8298 1.14815 30.5441 0.814816 31.3323 0.518521C32.1452 0.222224 32.8842 0.0740753 33.5492 0.0740753C34.2882 0.0740753 34.8178 0.283952 35.138 0.703706C35.1873 0.80247 35.2119 0.864198 35.2119 0.888891C35.2119 0.987656 35.1503 1.03704 35.0272 1.03704C34.904 1.03704 34.7809 1.02469 34.6577 1C33.5492 0.925927 32.293 1.28395 30.889 2.07408C29.4849 2.8642 28.007 3.95062 26.4551 5.33334C24.9279 6.71605 23.3761 8.28395 21.7996 10.037C20.2478 11.7654 18.7452 13.5432 17.2919 15.3704C15.8632 17.1975 14.5454 18.9506 13.3384 20.6296C12.1314 22.284 11.1092 23.7407 10.2717 25C9.45882 26.2593 8.89227 27.1852 8.57205 27.7778C8.49816 27.9259 8.375 28 8.20257 28Z" fill="white"/>
<path d="M19.5227 24.5556C18.7591 24.5556 18.1679 24.321 17.7491 23.8519C17.3304 23.358 17.121 22.7284 17.121 21.963C17.121 21.2469 17.3058 20.4568 17.6752 19.5926C18.0694 18.7284 18.6852 17.8519 19.5227 16.963C20.3848 16.0247 21.4563 15.2716 22.7372 14.7037C24.0181 14.1111 25.2374 13.8148 26.3951 13.8148C27.3311 13.8148 28.1317 14.0247 28.7967 14.4444C29.4618 14.8395 29.9052 15.3457 30.1269 15.963C30.3978 15.963 30.7304 16.037 31.1245 16.1852C31.5432 16.3333 31.7526 16.6049 31.7526 17C31.7526 17.2716 31.6171 17.5802 31.3462 17.9259C31.1738 18.1728 30.8659 18.5432 30.4225 19.037C30.0037 19.5309 29.6096 20.0617 29.2401 20.6296C28.9445 21.0741 28.7105 21.4938 28.5381 21.8889C28.3657 22.2593 28.2795 22.5802 28.2795 22.8519C28.2795 23.2222 28.4642 23.4074 28.8337 23.4074C29.2524 23.4074 29.8806 23.1728 30.7181 22.7037C31.6295 22.1852 32.5039 21.5926 33.3414 20.9259C34.1789 20.2593 34.8317 19.7284 35.2997 19.3333C35.4228 19.2346 35.5091 19.1852 35.5583 19.1852C35.6568 19.1852 35.7061 19.2469 35.7061 19.3704C35.7061 19.5185 35.6445 19.6543 35.5214 19.7778C35.2997 19.9753 34.8686 20.3457 34.2282 20.8889C33.5877 21.4321 32.8488 22 32.0113 22.5926C31.1984 23.1852 30.3978 23.6667 29.6096 24.037C29.2155 24.2099 28.846 24.3457 28.5012 24.4444C28.1809 24.5185 27.8853 24.5556 27.6144 24.5556C26.9493 24.5556 26.4444 24.3704 26.0995 24C25.7546 23.6049 25.5822 23.0988 25.5822 22.4815C25.5822 22.2346 25.6192 21.9753 25.6931 21.7037C25.767 21.4321 25.8532 21.1605 25.9517 20.8889L26.2103 20.2593C25.5699 21.0494 24.9295 21.7161 24.289 22.2593C23.6486 22.7778 23.0081 23.2346 22.3677 23.6296C21.8258 23.9506 21.3085 24.1852 20.8159 24.3333C20.3479 24.4815 19.9168 24.5556 19.5227 24.5556ZM20.6681 23.5926C21.1115 23.5926 21.7519 23.3333 22.5894 22.8148C23.4269 22.2716 24.3999 21.4444 25.5083 20.3333C25.6561 20.1852 25.9271 19.9259 26.3212 19.5556C26.7399 19.1605 27.1833 18.7284 27.6513 18.2593C28.1194 17.7654 28.5135 17.284 28.8337 16.8148C29.1785 16.321 29.351 15.9136 29.351 15.5926C29.351 15.1235 28.9445 14.8889 28.1317 14.8889C27.4173 14.8889 26.5552 15.1728 25.5453 15.7407C24.56 16.284 23.6116 17.0988 22.7002 18.1852C21.7642 19.2963 21.0745 20.2593 20.6311 21.0741C20.2124 21.8642 20.003 22.4691 20.003 22.8889C20.003 23.358 20.2247 23.5926 20.6681 23.5926Z" fill="white"/>
<path d="M34.8779 24.7037C34.6316 24.7037 34.336 24.642 33.9912 24.5185C33.6463 24.4198 33.3015 24.2222 32.9566 23.9259C33.2276 23.5556 33.6217 23.0617 34.139 22.4444C34.6316 21.8025 35.1612 21.0988 35.7278 20.3333C36.2943 19.5679 36.8239 18.8025 37.3165 18.037C36.9224 18.4321 36.4914 18.8519 36.0233 19.2963C35.5553 19.7407 35.0873 20.1481 34.6193 20.5185C34.5208 20.6173 34.4099 20.6667 34.2868 20.6667C34.1882 20.6667 34.139 20.6173 34.139 20.5185C34.139 20.3951 34.2375 20.2469 34.4346 20.0741C35.1243 19.4568 35.8879 18.7531 36.7254 17.963C37.5875 17.1482 38.2156 16.321 38.6097 15.4815C38.7329 15.1852 38.7945 14.9136 38.7945 14.6667C38.7945 14.3457 38.7329 14.1482 38.6097 14.0741C38.5112 14 38.462 13.9012 38.462 13.7778C38.462 13.5556 38.5728 13.4444 38.7945 13.4444C38.9177 13.4444 39.0162 13.4691 39.0901 13.5185C39.361 13.642 39.6197 13.8765 39.866 14.2222C40.1123 14.5679 40.2355 15.0864 40.2355 15.7778C40.2355 16.1728 40.1862 16.6296 40.0877 17.1481C39.9892 17.642 39.8167 18.2099 39.5704 18.8519C39.9399 18.358 40.3094 17.8765 40.6789 17.4074C41.073 16.9383 41.4301 16.5185 41.7504 16.1481C42.4154 15.3827 43.0805 14.8395 43.7456 14.5185C44.4353 14.1728 45.0511 14 45.593 14C46.2335 14 46.7507 14.1852 47.1449 14.5556C47.539 14.9259 47.736 15.4074 47.736 16C47.736 16.4691 47.6129 16.9506 47.3665 17.4444C47.2926 17.642 47.1202 17.9506 46.8493 18.3704C46.5783 18.7654 46.2827 19.1975 45.9625 19.6667C45.6423 20.1358 45.3467 20.5556 45.0757 20.9259C44.7555 21.321 44.5338 21.6667 44.4107 21.963C44.2875 22.2346 44.2259 22.4568 44.2259 22.6296C44.2259 22.8765 44.3614 23 44.6324 23C44.9772 23 45.4575 22.8148 46.0733 22.4444C46.4428 22.2222 46.8616 21.9259 47.3296 21.5556C47.8222 21.1605 48.3026 20.7654 48.7706 20.3704C49.2632 19.9506 49.6573 19.6049 49.9529 19.3333C50.0515 19.2346 50.1377 19.1852 50.2116 19.1852C50.3101 19.1852 50.3594 19.2469 50.3594 19.3704C50.3594 19.5185 50.2978 19.6543 50.1746 19.7778C49.4357 20.4691 48.5735 21.2222 47.5882 22.037C46.6276 22.8519 45.6792 23.4815 44.7432 23.9259C43.9796 24.2963 43.2776 24.4815 42.6371 24.4815C42.0952 24.4815 41.6642 24.3457 41.3439 24.0741C41.0237 23.7778 40.8636 23.358 40.8636 22.8148C40.8636 22.4198 40.9621 21.9506 41.1592 21.4074C41.4055 20.7407 41.7504 20.0741 42.1938 19.4074C42.6618 18.7407 43.1421 18.1111 43.6347 17.5185C44.152 16.9012 44.5954 16.3827 44.9649 15.963C45.2851 15.6173 45.4452 15.321 45.4452 15.0741C45.4452 14.8519 45.2974 14.7407 45.0018 14.7407C44.7062 14.7407 44.2629 14.9136 43.6717 15.2593C43.1051 15.5802 42.4647 16.1111 41.7504 16.8519C40.7404 17.9136 39.8537 19.0617 39.0901 20.2963C38.3265 21.5309 37.452 22.6914 36.4667 23.7778C35.9248 24.3951 35.3952 24.7037 34.8779 24.7037Z" fill="white"/>
<path d="M57.9878 13.1852C57.6429 13.1852 57.3843 13.0741 57.2119 12.8519C57.0394 12.6296 56.9532 12.3951 56.9532 12.1481C56.9532 11.6543 57.1872 11.1728 57.6553 10.7037C58.1233 10.2099 58.6159 9.96297 59.1332 9.96297C59.4781 9.96297 59.7367 10.0741 59.9091 10.2963C60.0815 10.5185 60.1678 10.7531 60.1678 11C60.1678 11.5185 59.9337 12.0123 59.4657 12.4815C59.0224 12.9506 58.5297 13.1852 57.9878 13.1852ZM52.3347 24.5556C51.3247 24.5556 50.635 24.3457 50.2656 23.9259C49.9207 23.4815 49.7483 22.9877 49.7483 22.4444C49.7483 22 49.8222 21.5802 49.97 21.1852C50.1178 20.7654 50.2409 20.4691 50.3395 20.2963C50.4872 20.0494 50.6843 19.7654 50.9306 19.4444C51.2016 19.1235 51.4972 18.7778 51.8174 18.4074C51.3247 18.8272 50.8567 19.2346 50.4133 19.6296C49.9946 20.0247 49.6497 20.321 49.3788 20.5185C49.3049 20.5926 49.231 20.6296 49.1571 20.6296C49.0586 20.6296 49.0093 20.5679 49.0093 20.4444C49.0093 20.2469 49.1448 20.0494 49.4157 19.8519C50.0562 19.3086 50.672 18.7161 51.2632 18.0741C51.879 17.4321 52.4578 16.8395 52.9997 16.2963C53.5417 15.7284 54.022 15.3333 54.4407 15.1111C54.8841 14.8642 55.2413 14.7037 55.5122 14.6296C55.7832 14.5556 56.0049 14.5185 56.1773 14.5185C56.4483 14.5185 56.6453 14.5679 56.7685 14.6667C56.8917 14.7407 56.9163 14.8272 56.8424 14.9259C56.4236 15.3457 56.0049 15.8889 55.5861 16.5556C55.192 17.1975 54.8225 17.8765 54.4777 18.5926C54.1328 19.3086 53.8496 19.9877 53.6279 20.6296C53.4308 21.2716 53.3323 21.8148 53.3323 22.2593C53.3323 22.8765 53.5786 23.1852 54.0713 23.1852C54.5393 23.1852 55.1428 22.9753 55.8817 22.5556C56.6453 22.1111 57.4336 21.5556 58.2464 20.8889C59.0839 20.2222 59.8599 19.5679 60.5742 18.9259C60.6727 18.8272 60.7589 18.7778 60.8328 18.7778C60.956 18.7778 61.0176 18.8395 61.0176 18.963C61.0422 19.0864 61.0176 19.1728 60.9437 19.2222C60.1308 19.9877 59.2071 20.7901 58.1725 21.6296C57.1626 22.4444 56.1404 23.1358 55.1058 23.7037C54.0959 24.2716 53.1722 24.5556 52.3347 24.5556Z" fill="white"/>
<path d="M63.3228 24.7037C62.3375 24.7037 61.6478 24.4691 61.2537 24C60.8596 23.5062 60.6625 22.9383 60.6625 22.2963C60.6625 21.679 60.7734 21.0247 60.9951 20.3333C61.2414 19.642 61.5123 18.9877 61.8079 18.3704C61.4877 18.7161 61.1798 19.037 60.8842 19.3333C60.5886 19.6049 60.3423 19.8272 60.1452 20C60.0467 20.0741 59.9482 20.1111 59.8497 20.1111C59.7265 20.1111 59.6649 20.0494 59.6649 19.9259C59.6649 19.8025 59.7388 19.6914 59.8866 19.5926C60.4039 19.1481 61.0074 18.5432 61.6971 17.7778C62.3868 17.0123 63.0272 16.2346 63.6184 15.4444C64.111 14.8025 64.7022 14 65.3919 13.037C66.0816 12.0741 66.7837 11.0617 67.498 10C68.2123 8.91358 68.8281 7.92593 69.3454 7.03704C69.4193 6.88889 69.4932 6.70371 69.5671 6.48148C69.6656 6.25926 69.7149 6.06173 69.7149 5.88889C69.7149 5.64198 69.6164 5.51852 69.4193 5.51852C69.3701 5.51852 69.2223 5.5679 68.9759 5.66667C68.7542 5.76543 68.5326 5.8642 68.3109 5.96296C68.0892 6.06173 67.9537 6.11111 67.9044 6.11111C67.7074 6.11111 67.7197 6 67.9414 5.77778C68.3355 5.48148 68.8281 5.19753 69.4193 4.92593C70.0351 4.62963 70.6632 4.38272 71.3037 4.18519C71.9441 3.98766 72.486 3.88889 72.9294 3.88889C73.964 3.88889 74.4813 4.22222 74.4813 4.88889C74.4813 5.23457 74.3212 5.69136 74.0009 6.25926C73.73 6.7037 73.3359 7.23457 72.8186 7.85185C72.3013 8.44445 71.7224 9.08642 71.082 9.77778C70.4662 10.4444 69.8627 11.1111 69.2715 11.7778C68.6803 12.4198 68.1877 12.9877 67.7936 13.4815C67.6951 13.6049 67.4487 13.9259 67.0546 14.4444C66.6851 14.963 66.2541 15.5926 65.7614 16.3333C65.2934 17.0494 64.8131 17.8148 64.3204 18.6296C63.8524 19.4198 63.4583 20.1852 63.1381 20.9259C62.8425 21.642 62.6947 22.2469 62.6947 22.7407C62.6947 23.4074 63.0149 23.7407 63.6553 23.7407C64.0741 23.7407 64.6037 23.6173 65.2441 23.3704C65.8599 23.1481 66.5004 22.8148 67.1655 22.3704C67.8552 21.9012 68.5202 21.4074 69.1607 20.8889C69.8257 20.3704 70.4046 19.8765 70.8973 19.4074C71.4145 18.9383 71.7963 18.5802 72.0427 18.3333C72.1905 18.1852 72.3136 18.1111 72.4121 18.1111C72.5107 18.1111 72.5599 18.1728 72.5599 18.2963C72.5599 18.4198 72.4984 18.5432 72.3752 18.6667C71.9811 19.0864 71.4392 19.6296 70.7495 20.2963C70.0844 20.963 69.3331 21.642 68.4956 22.3333C67.6827 23 66.8329 23.5679 65.9462 24.037C65.0594 24.4815 64.1849 24.7037 63.3228 24.7037Z" fill="white"/>
<path d="M72.8166 24.5556C72.053 24.5556 71.4618 24.321 71.043 23.8519C70.6243 23.358 70.4149 22.7284 70.4149 21.963C70.4149 21.2469 70.5996 20.4568 70.9691 19.5926C71.3632 18.7284 71.9791 17.8519 72.8166 16.963C73.6787 16.0247 74.7502 15.2716 76.0311 14.7037C77.312 14.1111 78.5313 13.8148 79.689 13.8148C80.625 13.8148 81.4256 14.0247 82.0906 14.4444C82.7557 14.8395 83.1991 15.3457 83.4208 15.963C83.6917 15.963 84.0243 16.037 84.4184 16.1852C84.8371 16.3333 85.0465 16.6049 85.0465 17C85.0465 17.2716 84.911 17.5802 84.6401 17.9259C84.4677 18.1728 84.1598 18.5432 83.7164 19.037C83.2976 19.5309 82.9035 20.0617 82.534 20.6296C82.2384 21.0741 82.0044 21.4938 81.832 21.8889C81.6596 22.2593 81.5733 22.5802 81.5733 22.8519C81.5733 23.2222 81.7581 23.4074 82.1276 23.4074C82.5463 23.4074 83.1745 23.1728 84.012 22.7037C84.9233 22.1852 85.7978 21.5926 86.6353 20.9259C87.4728 20.2593 88.1256 19.7284 88.5936 19.3333C88.7167 19.2346 88.8029 19.1852 88.8522 19.1852C88.9507 19.1852 89 19.2469 89 19.3704C89 19.5185 88.9384 19.6543 88.8153 19.7778C88.5936 19.9753 88.1625 20.3457 87.5221 20.8889C86.8816 21.4321 86.1427 22 85.3052 22.5926C84.4923 23.1852 83.6917 23.6667 82.9035 24.037C82.5094 24.2099 82.1399 24.3457 81.795 24.4444C81.4748 24.5185 81.1792 24.5556 80.9083 24.5556C80.2432 24.5556 79.7382 24.3704 79.3934 24C79.0485 23.6049 78.8761 23.0988 78.8761 22.4815C78.8761 22.2346 78.9131 21.9753 78.987 21.7037C79.0609 21.4321 79.1471 21.1605 79.2456 20.8889L79.5042 20.2593C78.8638 21.0494 78.2234 21.7161 77.5829 22.2593C76.9425 22.7778 76.302 23.2346 75.6616 23.6296C75.1197 23.9506 74.6024 24.1852 74.1098 24.3333C73.6417 24.4815 73.2107 24.5556 72.8166 24.5556ZM73.962 23.5926C74.4053 23.5926 75.0458 23.3333 75.8833 22.8148C76.7208 22.2716 77.6938 21.4444 78.8022 20.3333C78.95 20.1852 79.221 19.9259 79.6151 19.5556C80.0338 19.1605 80.4772 18.7284 80.9452 18.2593C81.4132 17.7654 81.8074 17.284 82.1276 16.8148C82.4724 16.321 82.6449 15.9136 82.6449 15.5926C82.6449 15.1235 82.2384 14.8889 81.4256 14.8889C80.7112 14.8889 79.8491 15.1728 78.8392 15.7407C77.8539 16.284 76.9055 17.0988 75.9941 18.1852C75.0581 19.2963 74.3684 20.2593 73.925 21.0741C73.5063 21.8642 73.2969 22.4691 73.2969 22.8889C73.2969 23.358 73.5186 23.5926 73.962 23.5926Z" fill="white"/>
</svg>
