<svg width="44" height="24" viewBox="0 0 44 24" fill="none" xmlns="http://www.w3.org/2000/svg">
<rect width="44" height="24" rx="4" fill="#FAFAFA"/>
<path d="M22.6183 9.83626C22.5978 11.5079 24.0616 12.4407 25.1642 12.9954C26.2971 13.5644 26.6776 13.9293 26.6731 14.4382C26.6647 15.217 25.7695 15.5607 24.9318 15.5741C23.4702 15.5975 22.6204 15.1668 21.9449 14.8411L21.4184 17.3841C22.0962 17.7065 23.3513 17.9877 24.6528 18C27.7078 18 29.7065 16.4433 29.7174 14.0298C29.7293 10.9666 25.6128 10.7971 25.6409 9.42793C25.6506 9.01277 26.0344 8.56975 26.8753 8.45711C27.2916 8.4002 28.4406 8.35666 29.7434 8.9759L30.2547 6.51546C29.5541 6.25214 28.6537 6 27.5326 6C24.6571 6 22.6346 7.57788 22.6183 9.83626ZM35.1678 6.21193C34.61 6.21193 34.1399 6.54783 33.9301 7.06329L29.566 17.8193H32.6189L33.2264 16.0862H36.9569L37.3093 17.8193H40L37.652 6.21193H35.1678ZM35.5949 9.34751L36.4759 13.7062H34.0631L35.5949 9.34751ZM18.9169 6.21208L16.5106 17.8191H19.4197L21.8249 6.21179L18.9169 6.21208ZM14.6134 6.21208L11.5855 14.1124L10.3606 7.39483C10.2169 6.64494 9.64933 6.21193 9.01905 6.21193H4.06933L4 6.54899C5.01616 6.7766 6.17069 7.14371 6.87016 7.53651C7.29822 7.77646 7.42028 7.98621 7.56091 8.55639L9.8808 17.8193H12.955L17.6682 6.21193L14.6134 6.21208Z" fill="#1434CB"/>
</svg>
